# xmcd
#
# Track frame offsets:
#	150
#	14926
#	26462
#	36613
#	52671
#	65611
#	79245
#	94402
#	105352
#	115112
#	126679
#	141271
#	154388
#	166117
#	178407
#	193085
#	202972
#	213265
#	222795
#	235824
#
# Disc length: 3296
#
# Revision: 2
# Processed by: cddbd v1.5.1PL0 Copyright (c) Steve Scherf et al.
# Submitted via: dBpowerAMP V4.0
# Normalized: r0:TSWAP
#
DISCID=2a0cde14
DTITLE=Various Artist - Country Roads Vol. 1
DYEAR=1999
DGENRE=Country
TTITLE0=John Denver - Take Me Home Country Roads
TTITLE1=Patsy Cline - Walking After Midnight
TTITLE2=Roger Miller - Engine No. 9
TTITLE3=Melanie - Ruby Tuesday
TTITLE4=Johnny Paycheck - Take This Job And Shove It
TTITLE5=Porter Wagoner - Green Green Grass Of Home
TTITLE6=Billie Jo Spears - Blanket On The Ground
TTITLE7=Jerry Wallace - Primrose Lane
TTITLE8=Dave Dudley - Cowboy Boots
TTITLE9=Everly Brothers - Wake Up Little Susie
TTITLE10=Don Gibson - I Can't Stop Loving You
TTITLE11=Lynn Anderson - Rose Garden
TTITLE12=Boxcar Willie - Six Days On The Road
TTITLE13=Charlie Rich - Behind Closed Doors
TTITLE14=The Bellamy Brothers - Let Your Love Flow
TTITLE15=Johnny Cash - Ballad Of A Teenage Queen
TTITLE16=Faron Young - Hello Walls
TTITLE17=Charley Pride - Kiss An Angel Goodmorning
TTITLE18=Kenny Rogers - Ruby, Don't Take Your Love To Town
TTITLE19=Freddy Fender - Before The Next Teardrop
EXTD=
EXTT0=
EXTT1=
EXTT2=
EXTT3=
EXTT4=
EXTT5=
EXTT6=
EXTT7=
EXTT8=
EXTT9=
EXTT10=
EXTT11=
EXTT12=
EXTT13=
EXTT14=
EXTT15=
EXTT16=
EXTT17=
EXTT18=
EXTT19=
PLAYORDER=
